<svg id="user" xmlns="http://www.w3.org/2000/svg" width="27.06" height="25.5" viewBox="0 0 27.06 25.5">
    <g id="Group_4" data-name="Group 4">
        <path id="Path_6" data-name="Path 6" d="M93.792,13.6a6.522,6.522,0,0,0,4.78-1.992,6.6,6.6,0,0,0,1.98-4.808,6.6,6.6,0,0,0-1.98-4.808,6.731,6.731,0,0,0-9.559,0A6.6,6.6,0,0,0,87.032,6.8a6.6,6.6,0,0,0,1.981,4.808A6.523,6.523,0,0,0,93.792,13.6Zm0,0" transform="translate(-80.092 0)" fill="#fc9920"/>
        <path id="Path_7" data-name="Path 7" d="M26.994,253.9a9.956,9.956,0,0,0-.263-1.455,8.832,8.832,0,0,0-.5-1.462,6.412,6.412,0,0,0-.847-1.364,5.833,5.833,0,0,0-1.277-1.181,6.293,6.293,0,0,0-1.835-.818,8.684,8.684,0,0,0-2.342-.3,2.985,2.985,0,0,0-1.27.382c-.381.176-.826.38-1.323.605a9.37,9.37,0,0,1-1.711.535,9.244,9.244,0,0,1-4.186,0,9.354,9.354,0,0,1-1.71-.535c-.492-.223-.938-.427-1.324-.606a2.98,2.98,0,0,0-1.269-.382,8.67,8.67,0,0,0-2.342.3,6.288,6.288,0,0,0-1.835.818,5.832,5.832,0,0,0-1.277,1.181,6.425,6.425,0,0,0-.847,1.364,8.855,8.855,0,0,0-.5,1.462A9.922,9.922,0,0,0,.065,253.9c-.043.44-.065.9-.065,1.359a3.347,3.347,0,0,0,1.6,2.892,7.266,7.266,0,0,0,4.122,1.067H21.338a7.264,7.264,0,0,0,4.122-1.067,3.346,3.346,0,0,0,1.6-2.892c0-.464-.022-.921-.066-1.36Zm0,0" transform="translate(0 -233.717)" fill="#fc9920"/>
    </g>
</svg>
