<?xml version="1.0" encoding="UTF-8"?>
<svg xmlns="http://www.w3.org/2000/svg" xmlns:xlink="http://www.w3.org/1999/xlink" width="25pt" height="25pt"   viewBox="0 0 25 25" version="1.1">
<g id="surface1" fill="#858282">
<path style=" stroke:none;fill-rule:nonzero;fill:rgb(0%,0%,0%);fill-opacity:1;" d="M 12.453125 0.78125 C 5.585938 0.78125 0 5.710938 0 11.765625 C 0 14.328125 1.011719 16.804688 2.855469 18.773438 C 3.222656 20.277344 2.777344 21.871094 1.679688 22.96875 C 1.21875 23.429688 1.542969 24.21875 2.195312 24.21875 C 4.285156 24.21875 6.296875 23.402344 7.792969 21.960938 C 9.269531 22.488281 10.835938 22.753906 12.453125 22.753906 C 19.316406 22.753906 25 17.824219 25 11.765625 C 25 5.710938 19.316406 0.78125 12.453125 0.78125 Z M 6.6875 13.964844 C 5.476562 13.964844 4.492188 12.980469 4.492188 11.765625 C 4.492188 10.554688 5.476562 9.570312 6.6875 9.570312 C 7.902344 9.570312 8.886719 10.554688 8.886719 11.765625 C 8.886719 12.980469 7.902344 13.964844 6.6875 13.964844 Z M 12.546875 13.964844 C 11.335938 13.964844 10.351562 12.980469 10.351562 11.765625 C 10.351562 10.554688 11.335938 9.570312 12.546875 9.570312 C 13.761719 9.570312 14.746094 10.554688 14.746094 11.765625 C 14.746094 12.980469 13.761719 13.964844 12.546875 13.964844 Z M 18.40625 13.964844 C 17.195312 13.964844 16.210938 12.980469 16.210938 11.765625 C 16.210938 10.554688 17.195312 9.570312 18.40625 9.570312 C 19.621094 9.570312 20.605469 10.554688 20.605469 11.765625 C 20.605469 12.980469 19.621094 13.964844 18.40625 13.964844 Z M 18.40625 13.964844" fill="#fc9920"/>
</g>
</svg>
