<?xml version="1.0" encoding="UTF-8"?>
<svg xmlns="http://www.w3.org/2000/svg" xmlns:xlink="http://www.w3.org/1999/xlink" width="25pt" height="25pt" viewBox="0 0 25 25" version="1.1">
<g id="surface1">
<path style=" stroke:none;fill-rule:nonzero;fill:rgb(0%,0%,0%);fill-opacity:1;" d="M 20.996094 1.6875 L 3.992188 1.6875 C 2.214844 1.6875 0.769531 3.132812 0.769531 4.910156 L 0.769531 15.316406 C 0.769531 17.089844 2.210938 18.53125 3.980469 18.539062 L 3.980469 23.261719 L 10.769531 18.539062 L 20.996094 18.539062 C 22.773438 18.539062 24.222656 17.09375 24.222656 15.316406 L 24.222656 4.910156 C 24.222656 3.132812 22.773438 1.6875 20.996094 1.6875 Z M 22.847656 15.316406 C 22.847656 16.335938 22.015625 17.164062 20.996094 17.164062 L 10.335938 17.164062 L 5.355469 20.632812 L 5.355469 17.164062 L 3.992188 17.164062 C 2.972656 17.164062 2.144531 16.335938 2.144531 15.316406 L 2.144531 4.910156 C 2.144531 3.890625 2.972656 3.058594 3.992188 3.058594 L 20.996094 3.058594 C 22.015625 3.058594 22.847656 3.890625 22.847656 4.910156 Z M 22.847656 15.316406 "/>
<path style=" stroke:none;fill-rule:nonzero;fill:rgb(0%,0%,0%);fill-opacity:1;" d="M 7.046875 6.539062 L 17.945312 6.539062 L 17.945312 7.914062 L 7.046875 7.914062 Z M 7.046875 6.539062 "/>
<path style=" stroke:none;fill-rule:nonzero;fill:rgb(0%,0%,0%);fill-opacity:1;" d="M 7.046875 9.472656 L 17.945312 9.472656 L 17.945312 10.847656 L 7.046875 10.847656 Z M 7.046875 9.472656 "/>
<path style=" stroke:none;fill-rule:nonzero;fill:rgb(0%,0%,0%);fill-opacity:1;" d="M 7.046875 12.402344 L 17.945312 12.402344 L 17.945312 13.777344 L 7.046875 13.777344 Z M 7.046875 12.402344 "/>
</g>
</svg>
