<svg id="Group_678" data-name="Group 678" xmlns="http://www.w3.org/2000/svg" width="27.06" height="25.5" viewBox="0 0 27.06 25.5">
    <path id="home_1_" data-name="home (1)" d="M26.333,11.091l0,0L15.292.687a2.6,2.6,0,0,0-3.523,0L.734,11.083l-.011.011a2.255,2.255,0,0,0,0,3.315,2.55,2.55,0,0,0,1.653.685q.038,0,.077,0H2.9v7.655A2.839,2.839,0,0,0,5.814,25.5h4.319a.771.771,0,0,0,.793-.747v-6a1.3,1.3,0,0,1,1.33-1.253H14.8a1.3,1.3,0,0,1,1.33,1.253v6a.771.771,0,0,0,.793.747h4.319a2.839,2.839,0,0,0,2.916-2.747V15.1h.408a2.555,2.555,0,0,0,1.762-.688,2.256,2.256,0,0,0,0-3.319Zm0,0" transform="translate(0 0.001)" fill="#fc9920"/>
</svg>
