<svg xmlns="http://www.w3.org/2000/svg" width="28" height="28" viewBox="0 0 28 28">
  <g id="maps-and-flags" transform="translate(-801 -14)">
    <g id="Group_3" data-name="Group 3" transform="translate(801 14)">
      <path id="Path_4" data-name="Path 4" d="M84.573,0c-7.72,0-14,4.549-14,10.14,0,6.939,12.529,17.126,13.062,17.557a1.6,1.6,0,0,0,1.876,0c.533-.43,13.062-10.617,13.062-17.557C98.573,4.549,92.293,0,84.573,0Zm0,15.242c-3.884,0-7.044-2.289-7.044-5.1s3.16-5.1,7.044-5.1,7.044,2.289,7.044,5.1S88.457,15.242,84.573,15.242Z" transform="translate(-70.573)" fill="#858282"/>
    </g>
  </g>
</svg>
