<?xml version="1.0" encoding="UTF-8"?>
<svg xmlns="http://www.w3.org/2000/svg" xmlns:xlink="http://www.w3.org/1999/xlink" width="25pt" height="25pt" viewBox="0 0 25 25" version="1.1">
<g id="surface1">
<path style=" stroke:none;fill-rule:nonzero;fill:rgb(11.372549%,12.941176%,15.686275%);fill-opacity:1;" d="M 0.722656 6.902344 C 0.710938 6.949219 0.707031 7 0.707031 7.050781 L 0.707031 8.078125 C 0.707031 8.503906 0.96875 8.878906 1.367188 9.03125 L 1.367188 10.542969 C 1.367188 11.046875 1.765625 11.464844 2.273438 11.488281 L 2.273438 20.226562 C 1.765625 20.25 1.367188 20.664062 1.367188 21.171875 L 1.367188 22.679688 C 0.96875 22.832031 0.707031 23.214844 0.707031 23.640625 L 0.707031 24.644531 C 0.707031 24.832031 0.855469 24.984375 1.042969 24.984375 L 23.949219 24.984375 C 24.136719 24.984375 24.285156 24.832031 24.285156 24.644531 L 24.285156 23.640625 C 24.285156 23.214844 24.023438 22.832031 23.625 22.679688 L 23.625 21.164062 C 23.625 20.65625 23.226562 20.238281 22.71875 20.214844 L 22.71875 11.488281 C 23.226562 11.464844 23.625 11.046875 23.625 10.542969 L 23.625 9.03125 C 24.023438 8.878906 24.285156 8.503906 24.285156 8.078125 L 24.285156 7.058594 C 24.285156 7.007812 24.28125 6.957031 24.269531 6.90625 C 24.441406 6.984375 24.640625 6.90625 24.71875 6.734375 C 24.792969 6.566406 24.714844 6.367188 24.546875 6.289062 L 12.652344 0.0390625 C 12.554688 -0.0117188 12.433594 -0.0117188 12.335938 0.0390625 L 0.441406 6.285156 C 0.277344 6.371094 0.214844 6.578125 0.300781 6.742188 C 0.378906 6.894531 0.5625 6.960938 0.722656 6.902344 Z M 2.046875 9.617188 L 2.046875 9.09375 L 5.960938 9.09375 L 5.960938 9.613281 Z M 10.765625 11.492188 L 10.765625 20.226562 C 10.261719 20.25 9.863281 20.664062 9.859375 21.171875 L 9.859375 22.617188 L 6.636719 22.617188 L 6.636719 21.171875 C 6.636719 20.664062 6.238281 20.25 5.730469 20.226562 L 5.730469 11.488281 C 6.238281 11.464844 6.636719 11.046875 6.636719 10.542969 L 6.636719 9.09375 L 9.855469 9.09375 L 9.855469 10.539062 C 9.855469 11.046875 10.253906 11.464844 10.761719 11.488281 Z M 10.539062 9.617188 L 10.539062 9.09375 L 14.457031 9.09375 L 14.457031 9.613281 Z M 19.261719 11.492188 L 19.261719 20.226562 C 18.753906 20.25 18.355469 20.664062 18.355469 21.171875 L 18.355469 22.617188 L 15.132812 22.617188 L 15.132812 21.171875 C 15.128906 20.664062 14.730469 20.25 14.226562 20.226562 L 14.226562 11.488281 C 14.730469 11.464844 15.128906 11.046875 15.132812 10.542969 L 15.132812 9.09375 L 18.351562 9.09375 L 18.351562 10.539062 C 18.351562 11.046875 18.75 11.464844 19.257812 11.488281 Z M 19.035156 9.617188 L 19.035156 9.09375 L 22.949219 9.09375 L 22.949219 9.613281 Z M 22.949219 22.097656 L 22.949219 22.617188 L 19.03125 22.617188 L 19.03125 22.097656 Z M 14.457031 22.097656 L 14.457031 22.617188 L 10.535156 22.617188 L 10.535156 22.097656 Z M 11.101562 10.816406 L 10.808594 10.816406 C 10.65625 10.816406 10.535156 10.695312 10.535156 10.542969 L 10.535156 10.296875 L 14.453125 10.296875 L 14.453125 10.542969 C 14.453125 10.695312 14.332031 10.816406 14.179688 10.816406 Z M 13.546875 11.496094 L 13.546875 20.21875 L 11.441406 20.21875 L 11.441406 11.496094 C 11.441406 11.496094 13.546875 11.496094 13.546875 11.496094 Z M 11.101562 20.898438 L 14.179688 20.898438 C 14.332031 20.898438 14.453125 21.019531 14.453125 21.171875 L 14.453125 21.417969 L 10.535156 21.417969 L 10.535156 21.171875 C 10.535156 21.019531 10.65625 20.898438 10.808594 20.898438 Z M 5.957031 22.097656 L 5.957031 22.617188 L 2.039062 22.617188 L 2.039062 22.097656 Z M 2.039062 10.550781 L 2.039062 10.296875 L 5.957031 10.296875 L 5.957031 10.542969 C 5.957031 10.695312 5.835938 10.816406 5.6875 10.816406 L 2.304688 10.816406 C 2.15625 10.8125 2.039062 10.691406 2.039062 10.542969 Z M 5.050781 11.5 L 5.050781 20.21875 L 2.945312 20.21875 L 2.945312 11.496094 Z M 2.039062 21.179688 C 2.039062 21.027344 2.164062 20.90625 2.3125 20.90625 L 5.6875 20.90625 C 5.835938 20.90625 5.957031 21.027344 5.957031 21.179688 L 5.957031 21.425781 L 2.039062 21.425781 Z M 23.609375 23.652344 L 23.609375 24.316406 L 1.378906 24.316406 L 1.378906 23.652344 C 1.378906 23.457031 1.535156 23.300781 1.730469 23.300781 L 23.257812 23.300781 C 23.449219 23.300781 23.605469 23.453125 23.609375 23.644531 C 23.609375 23.644531 23.609375 23.652344 23.609375 23.652344 Z M 22.945312 21.179688 L 22.945312 21.425781 L 19.03125 21.425781 L 19.03125 21.179688 C 19.03125 21.027344 19.152344 20.90625 19.300781 20.90625 L 22.683594 20.90625 C 22.828125 20.910156 22.941406 21.027344 22.945312 21.171875 Z M 19.933594 20.226562 L 19.933594 11.496094 L 22.042969 11.496094 L 22.042969 20.21875 Z M 22.945312 10.550781 C 22.945312 10.699219 22.824219 10.824219 22.675781 10.824219 L 19.304688 10.824219 C 19.152344 10.824219 19.03125 10.699219 19.03125 10.550781 L 19.03125 10.296875 L 22.949219 10.296875 Z M 12.492188 0.71875 L 22.605469 6.035156 L 2.378906 6.035156 Z M 1.378906 7.058594 C 1.378906 6.871094 1.53125 6.71875 1.71875 6.71875 L 23.269531 6.71875 C 23.457031 6.71875 23.609375 6.871094 23.609375 7.058594 L 23.609375 8.085938 C 23.609375 8.273438 23.457031 8.425781 23.269531 8.425781 L 1.71875 8.425781 C 1.53125 8.425781 1.378906 8.273438 1.378906 8.085938 Z M 1.378906 7.058594 "/>
</g>
</svg>
