<svg xmlns="http://www.w3.org/2000/svg" width="28" height="28" viewBox="0 0 28 28">
    <g id="bell" transform="translate(0 0)">
        <path id="Path_22" data-name="Path 22" d="M27.131,18.267a6.71,6.71,0,0,1-3.33-5.535V9.721c0-3.8-3.66-6.947-8.4-7.474V1.08A1.271,1.271,0,0,0,14,0a1.271,1.271,0,0,0-1.4,1.08V2.247C7.858,2.774,4.2,5.92,4.2,9.721v3.011A6.72,6.72,0,0,1,.857,18.276,1.746,1.746,0,0,0,0,19.711,2.228,2.228,0,0,0,2.45,21.6h23.1A2.228,2.228,0,0,0,28,19.711a1.756,1.756,0,0,0-.87-1.444Zm0,0" transform="translate(0)" fill="#858282"/>
        <path id="Path_23" data-name="Path 23" d="M142.453,453c3.7,0,6.79-2.152,7.5-5h-15c.711,2.848,3.8,5,7.5,5Zm0,0" transform="translate(-128.519 -425)" fill="#858282"/>
    </g>
</svg>
