<?xml version="1.0" encoding="UTF-8"?>
<svg xmlns="http://www.w3.org/2000/svg" xmlns:xlink="http://www.w3.org/1999/xlink" width="25pt" height="25pt" viewBox="0 0 25 25" version="1.1">
<g id="surface1">
<path style=" stroke:none;fill-rule:nonzero;fill:rgb(0%,0%,0%);fill-opacity:1;" d="M 12.5 0 C 5.605469 0 0 5.605469 0 12.5 C 0 19.394531 5.605469 25 12.5 25 C 19.394531 25 25 19.394531 25 12.5 C 25 5.605469 19.394531 0 12.5 0 Z M 12.5 19.792969 C 11.925781 19.792969 11.457031 19.324219 11.457031 18.75 C 11.457031 18.175781 11.925781 17.707031 12.5 17.707031 C 13.074219 17.707031 13.542969 18.175781 13.542969 18.75 C 13.542969 19.324219 13.074219 19.792969 12.5 19.792969 Z M 14.148438 13.167969 C 13.78125 13.339844 13.542969 13.710938 13.542969 14.117188 L 13.542969 14.582031 C 13.542969 15.160156 13.074219 15.625 12.5 15.625 C 11.925781 15.625 11.457031 15.160156 11.457031 14.582031 L 11.457031 14.117188 C 11.457031 12.898438 12.171875 11.785156 13.277344 11.277344 C 14.335938 10.789062 15.105469 9.492188 15.105469 8.855469 C 15.105469 7.417969 13.9375 6.25 12.5 6.25 C 11.0625 6.25 9.894531 7.417969 9.894531 8.855469 C 9.894531 9.429688 9.429688 9.894531 8.855469 9.894531 C 8.277344 9.894531 7.8125 9.429688 7.8125 8.855469 C 7.8125 6.269531 9.914062 4.167969 12.5 4.167969 C 15.085938 4.167969 17.1875 6.269531 17.1875 8.855469 C 17.1875 10.261719 15.964844 12.332031 14.148438 13.167969 Z M 14.148438 13.167969 "/>
</g>
</svg>
