<svg id="surface1" xmlns="http://www.w3.org/2000/svg" width="27.06" height="25.5" viewBox="0 0 27.06 25.5">
    <path id="Path_5" data-name="Path 5" d="M18.961,15.132A9.133,9.133,0,0,0,16.488,1.764,10.936,10.936,0,0,0,2.018,4.05,9.132,9.132,0,0,0,4.493,17.417a11.1,11.1,0,0,0,11.277.431l7.653,7.028a2.3,2.3,0,0,0,3.071.072,1.9,1.9,0,0,0,.079-2.837c-.026-.026-.051-.049-.079-.073Zm-8.478.655A6.456,6.456,0,0,1,3.787,9.6a6.454,6.454,0,0,1,6.692-6.186,6.455,6.455,0,0,1,6.7,6.172,6.454,6.454,0,0,1-6.686,6.2Zm0,0" transform="translate(-0.109 0)" fill="#858282"/>
</svg>

