<?xml version="1.0" encoding="UTF-8"?>
<svg xmlns="http://www.w3.org/2000/svg" xmlns:xlink="http://www.w3.org/1999/xlink" width="25pt" height="25pt" viewBox="0 0 25 25" version="1.1">
<g id="surface1">
<path style=" stroke:none;fill-rule:nonzero;fill:rgb(0%,0%,0%);fill-opacity:1;" d="M 19.792969 10.441406 L 19.792969 5.207031 C 19.792969 4.058594 18.855469 3.125 17.707031 3.125 L 2.082031 3.125 C 0.933594 3.125 0 4.058594 0 5.207031 L 0 15.625 C 0 16.773438 0.933594 17.707031 2.082031 17.707031 L 13.765625 17.707031 C 14.445312 20.109375 16.652344 21.875 19.269531 21.875 C 20.277344 21.875 21.269531 21.609375 22.136719 21.109375 C 22.382812 20.964844 22.46875 20.644531 22.324219 20.394531 C 22.183594 20.148438 21.863281 20.0625 21.613281 20.207031 C 20.90625 20.617188 20.09375 20.832031 19.269531 20.832031 C 16.6875 20.832031 14.582031 18.730469 14.582031 16.144531 C 14.582031 13.5625 16.6875 11.457031 19.269531 11.457031 C 21.855469 11.457031 23.957031 13.5625 23.957031 16.144531 L 23.957031 16.667969 C 23.957031 17.242188 23.492188 17.707031 22.917969 17.707031 C 22.34375 17.707031 21.875 17.242188 21.875 16.667969 L 21.875 14.582031 C 21.875 14.296875 21.640625 14.0625 21.355469 14.0625 C 21.214844 14.0625 21.089844 14.121094 20.996094 14.210938 C 20.535156 13.796875 19.933594 13.542969 19.269531 13.542969 C 17.835938 13.542969 16.667969 14.710938 16.667969 16.144531 C 16.667969 17.582031 17.835938 18.75 19.269531 18.75 C 20.046875 18.75 20.738281 18.402344 21.214844 17.859375 C 21.59375 18.398438 22.210938 18.75 22.917969 18.75 C 24.066406 18.75 25 17.816406 25 16.667969 L 25 16.144531 C 25 13.164062 22.707031 10.707031 19.792969 10.441406 Z M 2.082031 4.167969 L 17.707031 4.167969 C 17.730469 4.167969 17.75 4.179688 17.769531 4.179688 L 10.324219 10.289062 C 10.058594 10.457031 9.675781 10.421875 9.503906 10.316406 L 2.023438 4.179688 C 2.042969 4.175781 2.0625 4.167969 2.082031 4.167969 Z M 18.75 10.441406 C 15.835938 10.707031 13.542969 13.164062 13.542969 16.144531 C 13.542969 16.320312 13.550781 16.496094 13.566406 16.667969 L 2.082031 16.667969 C 1.507812 16.667969 1.042969 16.199219 1.042969 15.625 L 1.042969 5.207031 C 1.042969 5.0625 1.074219 4.921875 1.128906 4.792969 L 8.886719 11.15625 C 9.191406 11.355469 9.539062 11.457031 9.894531 11.457031 C 10.238281 11.457031 10.574219 11.363281 10.867188 11.179688 C 10.898438 11.164062 10.925781 11.144531 10.953125 11.121094 L 18.660156 4.792969 C 18.71875 4.921875 18.75 5.0625 18.75 5.207031 Z M 19.269531 17.707031 C 18.410156 17.707031 17.707031 17.007812 17.707031 16.144531 C 17.707031 15.285156 18.410156 14.582031 19.269531 14.582031 C 20.132812 14.582031 20.832031 15.285156 20.832031 16.144531 C 20.832031 17.007812 20.132812 17.707031 19.269531 17.707031 Z M 19.269531 17.707031 "/>
</g>
</svg>
