<?xml version="1.0" encoding="UTF-8"?>
<svg xmlns="http://www.w3.org/2000/svg" xmlns:xlink="http://www.w3.org/1999/xlink" width="25pt" height="25pt" viewBox="0 0 25 25" version="1.1">
<g id="surface1">
<path style=" stroke:none;fill-rule:nonzero;fill:rgb(0%,0%,0%);fill-opacity:1;" d="M 24.390625 22.558594 L 22.238281 22.558594 L 22.238281 8.816406 C 22.238281 8.480469 21.964844 8.207031 21.628906 8.207031 L 20.234375 8.207031 C 20.035156 8.207031 19.871094 8.371094 19.871094 8.574219 C 19.871094 8.773438 20.035156 8.9375 20.234375 8.9375 L 21.503906 8.9375 L 21.503906 22.558594 L 18.03125 22.558594 L 18.03125 8.9375 L 18.515625 8.9375 C 18.71875 8.9375 18.882812 8.773438 18.882812 8.574219 C 18.882812 8.371094 18.71875 8.207031 18.515625 8.207031 L 17.910156 8.207031 C 17.574219 8.207031 17.296875 8.480469 17.296875 8.816406 L 17.296875 22.558594 L 14.96875 22.558594 L 14.96875 13.449219 C 14.96875 13.113281 14.695312 12.839844 14.359375 12.839844 L 10.640625 12.839844 C 10.304688 12.839844 10.03125 13.113281 10.03125 13.449219 L 10.03125 22.558594 L 7.703125 22.558594 L 7.703125 17.449219 C 7.703125 17.113281 7.425781 16.839844 7.089844 16.839844 L 3.371094 16.839844 C 3.035156 16.839844 2.761719 17.113281 2.761719 17.449219 L 2.761719 19.085938 C 2.761719 19.285156 2.925781 19.449219 3.128906 19.449219 C 3.332031 19.449219 3.496094 19.285156 3.496094 19.085938 L 3.496094 17.570312 L 6.96875 17.570312 L 6.96875 22.558594 L 3.496094 22.558594 L 3.496094 20.785156 C 3.496094 20.585938 3.332031 20.421875 3.128906 20.421875 C 2.925781 20.421875 2.761719 20.585938 2.761719 20.785156 L 2.761719 22.558594 L 0.609375 22.558594 C 0.273438 22.558594 0 22.832031 0 23.171875 L 0 24.335938 C 0 24.671875 0.273438 24.945312 0.609375 24.945312 L 24.390625 24.945312 C 24.726562 24.945312 25 24.671875 25 24.335938 L 25 23.171875 C 25 22.832031 24.726562 22.558594 24.390625 22.558594 Z M 10.761719 13.570312 L 14.238281 13.570312 L 14.238281 22.558594 L 10.761719 22.558594 Z M 24.269531 24.214844 L 0.730469 24.214844 L 0.730469 23.292969 L 24.269531 23.292969 Z M 24.269531 24.214844 "/>
<path style=" stroke:none;fill-rule:nonzero;fill:rgb(0%,0%,0%);fill-opacity:1;" d="M 3.039062 13.449219 L 2.828125 14.671875 C 2.773438 15.011719 2.910156 15.347656 3.1875 15.550781 C 3.347656 15.664062 3.53125 15.722656 3.714844 15.722656 C 3.859375 15.722656 4.003906 15.6875 4.136719 15.617188 L 5.230469 15.042969 L 6.328125 15.617188 C 6.632812 15.78125 6.996094 15.753906 7.277344 15.550781 C 7.554688 15.347656 7.691406 15.011719 7.632812 14.671875 L 7.425781 13.449219 L 8.3125 12.585938 C 8.558594 12.34375 8.644531 11.992188 8.539062 11.664062 C 8.433594 11.335938 8.152344 11.101562 7.8125 11.050781 L 6.585938 10.871094 L 6.039062 9.761719 C 5.886719 9.453125 5.578125 9.261719 5.230469 9.261719 C 4.886719 9.261719 4.578125 9.453125 4.425781 9.761719 L 3.875 10.871094 L 2.652344 11.050781 C 2.308594 11.101562 2.03125 11.335938 1.925781 11.664062 C 1.820312 11.992188 1.90625 12.34375 2.152344 12.585938 Z M 2.621094 11.890625 C 2.628906 11.859375 2.664062 11.789062 2.757812 11.773438 L 4.039062 11.589844 C 4.242188 11.558594 4.417969 11.429688 4.507812 11.246094 L 5.082031 10.085938 C 5.121094 10 5.199219 9.992188 5.230469 9.992188 C 5.261719 9.992188 5.339844 10 5.382812 10.085938 L 5.957031 11.246094 C 6.046875 11.429688 6.222656 11.558594 6.425781 11.589844 L 7.707031 11.773438 C 7.800781 11.789062 7.832031 11.859375 7.84375 11.890625 C 7.851562 11.917969 7.867188 11.996094 7.800781 12.0625 L 6.875 12.964844 C 6.726562 13.109375 6.660156 13.316406 6.695312 13.519531 L 6.914062 14.792969 C 6.929688 14.886719 6.871094 14.941406 6.847656 14.957031 C 6.820312 14.976562 6.75 15.015625 6.667969 14.972656 L 5.523438 14.367188 C 5.429688 14.320312 5.332031 14.296875 5.230469 14.296875 C 5.132812 14.296875 5.03125 14.320312 4.941406 14.367188 L 3.796875 14.972656 C 3.710938 15.015625 3.644531 14.976562 3.617188 14.957031 C 3.59375 14.941406 3.535156 14.886719 3.550781 14.792969 L 3.769531 13.519531 C 3.804688 13.316406 3.738281 13.109375 3.589844 12.964844 L 2.664062 12.0625 C 2.597656 11.996094 2.609375 11.917969 2.621094 11.890625 Z M 2.621094 11.890625 "/>
<path style=" stroke:none;fill-rule:nonzero;fill:rgb(0%,0%,0%);fill-opacity:1;" d="M 10.308594 9 L 10.097656 10.21875 C 10.039062 10.558594 10.175781 10.898438 10.457031 11.097656 C 10.613281 11.214844 10.796875 11.273438 10.984375 11.273438 C 11.128906 11.273438 11.269531 11.238281 11.402344 11.167969 L 12.5 10.59375 L 13.59375 11.167969 C 13.902344 11.328125 14.265625 11.300781 14.542969 11.097656 C 14.824219 10.898438 14.960938 10.558594 14.902344 10.21875 L 14.691406 9 L 15.578125 8.132812 C 15.828125 7.894531 15.914062 7.539062 15.808594 7.210938 C 15.699219 6.882812 15.421875 6.648438 15.082031 6.597656 L 13.855469 6.421875 L 13.308594 5.3125 C 13.15625 5 12.84375 4.808594 12.5 4.808594 C 12.15625 4.808594 11.84375 5 11.691406 5.3125 L 11.144531 6.421875 L 9.917969 6.597656 C 9.578125 6.648438 9.300781 6.882812 9.191406 7.210938 C 9.085938 7.539062 9.171875 7.894531 9.421875 8.132812 Z M 9.890625 7.4375 C 9.898438 7.40625 9.929688 7.335938 10.023438 7.324219 L 11.304688 7.136719 C 11.507812 7.109375 11.683594 6.980469 11.777344 6.796875 L 12.347656 5.636719 C 12.390625 5.550781 12.46875 5.539062 12.5 5.539062 C 12.53125 5.539062 12.609375 5.550781 12.652344 5.636719 L 13.222656 6.796875 C 13.316406 6.980469 13.492188 7.109375 13.695312 7.136719 L 14.976562 7.324219 C 15.070312 7.335938 15.101562 7.40625 15.109375 7.4375 C 15.121094 7.46875 15.136719 7.542969 15.066406 7.609375 L 14.140625 8.515625 C 13.996094 8.65625 13.925781 8.863281 13.960938 9.066406 L 14.179688 10.34375 C 14.195312 10.4375 14.140625 10.488281 14.113281 10.507812 C 14.089844 10.527344 14.019531 10.5625 13.9375 10.519531 L 12.789062 9.917969 C 12.699219 9.871094 12.601562 9.847656 12.5 9.847656 C 12.398438 9.847656 12.300781 9.871094 12.210938 9.917969 L 11.0625 10.519531 C 10.980469 10.5625 10.910156 10.527344 10.886719 10.507812 C 10.859375 10.488281 10.804688 10.4375 10.820312 10.34375 L 11.039062 9.066406 C 11.074219 8.863281 11.003906 8.65625 10.859375 8.515625 L 9.929688 7.609375 C 9.863281 7.542969 9.878906 7.46875 9.890625 7.4375 Z M 9.890625 7.4375 "/>
<path style=" stroke:none;fill-rule:nonzero;fill:rgb(0%,0%,0%);fill-opacity:1;" d="M 17.574219 4.242188 L 17.367188 5.464844 C 17.308594 5.804688 17.445312 6.140625 17.722656 6.34375 C 18.003906 6.546875 18.367188 6.574219 18.671875 6.414062 L 19.769531 5.835938 L 20.863281 6.414062 C 20.996094 6.480469 21.140625 6.515625 21.285156 6.515625 C 21.46875 6.515625 21.652344 6.457031 21.8125 6.34375 C 22.089844 6.140625 22.226562 5.804688 22.167969 5.464844 L 21.960938 4.242188 L 22.847656 3.378906 C 23.09375 3.136719 23.179688 2.785156 23.074219 2.457031 C 22.96875 2.128906 22.691406 1.894531 22.347656 1.84375 L 21.125 1.664062 L 20.574219 0.554688 C 20.421875 0.246094 20.113281 0.0546875 19.769531 0.0546875 C 19.421875 0.0546875 19.113281 0.246094 18.960938 0.554688 L 18.414062 1.664062 L 17.1875 1.84375 C 16.847656 1.894531 16.566406 2.128906 16.460938 2.457031 C 16.355469 2.785156 16.441406 3.136719 16.6875 3.378906 Z M 17.15625 2.683594 C 17.167969 2.652344 17.199219 2.582031 17.292969 2.566406 L 18.574219 2.382812 C 18.777344 2.351562 18.953125 2.222656 19.042969 2.039062 L 19.617188 0.878906 C 19.660156 0.792969 19.738281 0.785156 19.769531 0.785156 C 19.800781 0.785156 19.878906 0.792969 19.917969 0.878906 L 20.492188 2.039062 C 20.582031 2.222656 20.757812 2.351562 20.960938 2.382812 L 22.242188 2.566406 C 22.335938 2.582031 22.371094 2.652344 22.378906 2.683594 C 22.390625 2.710938 22.402344 2.789062 22.335938 2.855469 L 21.410156 3.757812 C 21.261719 3.902344 21.195312 4.109375 21.230469 4.3125 L 21.449219 5.585938 C 21.464844 5.679688 21.40625 5.734375 21.382812 5.75 C 21.355469 5.769531 21.289062 5.808594 21.203125 5.765625 L 20.058594 5.164062 C 19.96875 5.113281 19.867188 5.089844 19.769531 5.089844 C 19.667969 5.089844 19.570312 5.113281 19.476562 5.164062 L 18.332031 5.765625 C 18.246094 5.808594 18.179688 5.769531 18.152344 5.75 C 18.128906 5.734375 18.070312 5.679688 18.085938 5.585938 L 18.304688 4.3125 C 18.339844 4.109375 18.273438 3.902344 18.125 3.757812 L 17.199219 2.855469 C 17.132812 2.789062 17.148438 2.710938 17.15625 2.683594 Z M 17.15625 2.683594 "/>
</g>
</svg>
