<svg id="food-delivery_1_" data-name="food-delivery (1)" xmlns="http://www.w3.org/2000/svg" width="27.06" height="25.5" viewBox="0 0 27.06 25.5">
    <path id="Path_8" data-name="Path 8" d="M14.612,23C12.62,23,11,25.109,11,27.7v.522h7.224V27.7C18.224,25.109,16.6,23,14.612,23Zm0,2.089A1.991,1.991,0,0,0,12.873,26.4l-.695-.523a2.786,2.786,0,0,1,2.433-1.828Z" transform="translate(-6.552 -18.799)" fill="#858282"/>
    <path id="Path_9" data-name="Path 9" d="M25.239,21.667a2.714,2.714,0,0,0,1.488,1.07V18.33a2.5,2.5,0,0,0-1.866,2.2H21.129a.577.577,0,0,0,0,1.133h1.866V35.833H17.4v-.567c0-3.437-2.3-6.233-5.132-6.233H18.8a.577.577,0,0,0,0-1.133h-.933V16H2.933V27.9H2.467a.577.577,0,0,0,0,1.133h1.4l2.273,2.76a7.167,7.167,0,0,0-.873,3.473v2.267h2.8c0,2.191,1.462,3.967,3.266,3.967S14.6,39.724,14.6,37.533h7.465c0,2.191,1.462,3.967,3.266,3.967s3.266-1.776,3.266-3.967h.467V33.861a6.878,6.878,0,0,0-1.41-4.26A3.15,3.15,0,0,0,24.861,33h-.933a4.485,4.485,0,0,1,2.748-4.368,7.749,7.749,0,0,1-2.748-6.126v-.839ZM4.333,25.633h.933v-.567c0-3.246,2.054-5.917,4.666-6.2V17.7h.933v1.162c2.612.287,4.666,2.959,4.666,6.2v.567h.933v1.133H4.333Zm.933,3.4H10.4A4.714,4.714,0,0,0,6.77,30.861Zm6.065,10.2a1.572,1.572,0,0,1-1.4-1.7h2.8A1.572,1.572,0,0,1,11.331,39.233Zm4.171-3.4c-.233-2.546-2.014-4.533-4.171-4.533S7.393,33.287,7.16,35.833H6.223c.237-3.172,2.436-5.667,5.108-5.667s4.872,2.494,5.108,5.667Zm11.225,1.7a1.572,1.572,0,0,1-1.4,1.7,1.572,1.572,0,0,1-1.4-1.7Zm-1.866-3.4v1.133h-.933V34.133Z" transform="translate(-2 -16)" fill="#858282"/>
</svg>
