<?xml version="1.0" encoding="UTF-8"?>
<svg xmlns="http://www.w3.org/2000/svg" xmlns:xlink="http://www.w3.org/1999/xlink" width="25pt" height="25pt" viewBox="0 0 25 25" version="1.1">
<g id="surface1">
<path style=" stroke:none;fill-rule:nonzero;fill:rgb(0%,0%,0%);fill-opacity:1;" d="M 18.269531 8.894531 L 25 8.894531 L 25 5.769531 C 25 3.78125 23.382812 2.164062 21.394531 2.164062 L 3.605469 2.164062 C 1.617188 2.164062 0 3.78125 0 5.769531 L 0 19.230469 C 0 21.21875 1.617188 22.835938 3.605469 22.835938 L 21.394531 22.835938 C 23.382812 22.835938 25 21.21875 25 19.230469 L 25 16.105469 L 18.269531 16.105469 C 16.28125 16.105469 14.664062 14.488281 14.664062 12.5 C 14.664062 10.511719 16.28125 8.894531 18.269531 8.894531 Z M 18.269531 8.894531 "/>
<path style=" stroke:none;fill-rule:nonzero;fill:rgb(0%,0%,0%);fill-opacity:1;" d="M 18.269531 10.335938 C 17.078125 10.335938 16.105469 11.308594 16.105469 12.5 C 16.105469 13.691406 17.078125 14.664062 18.269531 14.664062 L 25 14.664062 L 25 10.335938 Z M 19.230469 13.222656 L 18.269531 13.222656 C 17.871094 13.222656 17.546875 12.898438 17.546875 12.5 C 17.546875 12.101562 17.871094 11.777344 18.269531 11.777344 L 19.230469 11.777344 C 19.628906 11.777344 19.953125 12.101562 19.953125 12.5 C 19.953125 12.898438 19.628906 13.222656 19.230469 13.222656 Z M 19.230469 13.222656 "/>
</g>
</svg>
